<svg width="100" height="100" viewBox="0 0 100 100" fill="none" xmlns="http://www.w3.org/2000/svg">
<path d="M21.3447 5.93787C18.4502 5.9365 15.4045 6.35662 12.1998 7.29178C12.1903 7.29495 12.1809 7.29821 12.1715 7.30154C12.1389 7.31191 12.1066 7.32318 12.0746 7.33533C12.049 7.34467 12.0236 7.35456 11.9984 7.36502C11.9675 7.37837 11.9368 7.39257 11.9066 7.4076C11.8814 7.41959 11.8564 7.43216 11.8316 7.44529C11.801 7.46221 11.7708 7.47999 11.7412 7.49861C11.7186 7.51246 11.6964 7.52678 11.6744 7.54158C11.6455 7.5616 11.6172 7.58245 11.5895 7.60408C11.568 7.62029 11.5469 7.63696 11.5262 7.65408C11.4997 7.67659 11.4738 7.69984 11.4486 7.72381C11.4289 7.74226 11.4095 7.76115 11.3906 7.78045C11.3658 7.80611 11.3417 7.83249 11.3184 7.85955C11.3019 7.8783 11.2858 7.89738 11.2701 7.91678C11.2469 7.94624 11.2247 7.97639 11.2033 8.00721C11.1889 8.02743 11.1749 8.04794 11.1613 8.06873C11.1421 8.09892 11.1237 8.12966 11.1063 8.16092C11.0932 8.18369 11.0806 8.20675 11.0686 8.23006C11.0525 8.26197 11.0373 8.29434 11.023 8.32713C11.0124 8.3508 11.0022 8.3747 10.9926 8.39881C10.98 8.4318 10.9684 8.46515 10.9578 8.49881C10.9493 8.52377 10.9414 8.5489 10.934 8.5742C10.9213 8.61856 10.9102 8.66338 10.9008 8.70857L6.52735 30.5762C6.44363 30.9954 6.50724 31.4306 6.70742 31.8084C6.9076 32.1861 7.23207 32.4831 7.62598 32.6492L23.6461 39.4027L29.8219 71.0693L7.06133 76.0133C6.65085 76.1016 6.28247 76.3266 6.01639 76.6514C5.75032 76.9762 5.60229 77.3817 5.59649 77.8015L5.38906 92.7371C5.38499 93.031 5.4508 93.3217 5.58109 93.5852C5.71137 93.8487 5.9024 94.0775 6.13843 94.2527C6.37446 94.4279 6.64874 94.5445 6.93867 94.5929C7.22861 94.6414 7.5259 94.6202 7.80606 94.5312L36.4131 85.3881L41.1246 84.4746C41.1592 84.4752 41.1936 84.4775 41.2281 84.4775C43.1727 84.4775 45.0039 83.5513 46.2828 82.0416C47.5607 80.533 48.2293 78.567 48.2273 76.5416V76.5365C48.2285 75.2525 47.9594 73.9902 47.4373 72.8539L42.5012 47.3519L67.0664 57.7074C67.0765 57.7113 67.0866 57.715 67.0967 57.7187C67.1318 57.7326 67.1673 57.7455 67.2031 57.7572C67.2258 57.7648 67.2486 57.772 67.2715 57.7787C67.3066 57.7887 67.3419 57.7977 67.3775 57.8056C67.4045 57.8118 67.4316 57.8174 67.4588 57.8224C67.4901 57.828 67.5216 57.8328 67.5531 57.8367C67.5844 57.8408 67.6158 57.844 67.6473 57.8465C67.6752 57.8484 67.7032 57.8497 67.7313 57.8504C67.7664 57.8516 67.8016 57.8519 67.8367 57.8512C67.8604 57.851 67.884 57.8503 67.9076 57.8492L84.1978 56.8179C84.5285 56.7961 84.8473 56.686 85.121 56.4992C85.3948 56.3124 85.6135 56.0558 85.7545 55.7558L95.6221 34.8664L95.6236 34.8637C95.6236 34.8635 95.6236 34.8634 95.6236 34.8633C95.6249 34.8602 95.6262 34.8571 95.6275 34.8541C95.7421 34.6172 95.805 34.3587 95.8121 34.0956C95.8191 33.8326 95.7701 33.571 95.6683 33.3284C95.5665 33.0857 95.4143 32.8675 95.2217 32.6882C95.0292 32.5088 94.8007 32.3725 94.5514 32.2883C93.0812 31.4805 91.5068 30.8793 89.8725 30.5015L29.7408 7.1656C29.6894 7.14584 29.6371 7.12837 29.5842 7.11326C26.9832 6.36267 24.2395 5.93943 21.3447 5.93787ZM16.1988 8.61814C16.4458 8.61662 16.6907 8.66443 16.9189 8.75877L73.7061 31.5185C74.1119 31.681 74.4474 31.9814 74.6536 32.3669C74.8597 32.7524 74.9232 33.1982 74.833 33.626C74.7789 33.7169 74.7327 33.8123 74.6949 33.9111L74.5316 34.3154C74.2907 34.6559 73.9421 34.9053 73.5421 35.0235C73.1421 35.1417 72.7139 35.1218 72.3266 34.967L15.5397 12.2012C15.1385 12.044 14.8045 11.7521 14.5951 11.3756C14.3856 10.9991 14.3137 10.5614 14.3916 10.1377C14.4696 9.71397 14.6926 9.33059 15.0224 9.05332C15.3522 8.77605 15.768 8.62219 16.1988 8.61814ZM85.9855 33.6898C86.8449 33.6972 87.6945 33.789 88.5379 33.964L91.4168 35.0812L86.7937 44.8691C86.9719 44.0765 87.0629 43.2906 87.0545 42.5537C87.035 40.8482 86.4803 39.4385 85.5223 38.7328C84.5643 38.0271 83.2394 38.0531 81.9334 38.7816C81.6111 38.9613 81.2879 39.1846 80.9752 39.4408C81.0951 39.2803 81.2076 39.1049 81.3047 38.916C81.5814 38.3775 81.7438 37.7535 81.7383 37.2012C81.732 36.6474 81.5537 36.1771 81.2377 35.9375C81.0841 35.819 80.8946 35.7565 80.7006 35.7605C80.5033 35.7637 80.29 35.8254 80.0842 35.9435C79.6727 36.1803 79.2873 36.631 79.01 37.1705C78.7332 37.7103 78.5705 38.3322 78.577 38.8857C78.5828 39.439 78.7615 39.9095 79.0773 40.1494C79.3932 40.3887 79.8191 40.3734 80.2309 40.1369C79.5637 40.8326 78.9523 41.6799 78.4551 42.6213C77.5551 44.3236 77.0437 46.2928 77.0635 47.9982C77.083 49.7037 77.6494 51.1193 78.6076 51.8252C79.5654 52.531 80.8779 52.499 82.1838 51.7705C82.9998 51.315 83.8029 50.5951 84.51 49.7037L82.8674 53.1803L70.6115 53.9615L77.8875 35.9166C80.7459 34.4037 83.4094 33.6679 85.9857 33.69L85.9855 33.6898ZM27.7672 41.14L30.8949 42.4588L36.702 69.7156C36.1107 69.534 35.4958 69.4412 34.8773 69.4402C34.3453 69.4402 33.8227 69.5117 33.3172 69.6428L27.7672 41.14ZM35.0627 44.2158L38.3863 45.617L42.8785 68.826C42.3412 68.6772 41.7863 68.6012 41.2287 68.6002C40.9078 68.6002 40.5908 68.6275 40.2785 68.6763L35.0629 44.2154L35.0627 44.2158ZM41.2285 72.3242C41.983 72.3242 42.8414 72.7105 43.4691 73.4515C44.0971 74.1927 44.5303 75.3832 44.5285 76.5365C44.5285 76.5382 44.5285 76.5399 44.5285 76.5416C44.5305 77.6949 44.0969 78.8853 43.4693 79.6265C43.1878 79.96 42.8435 80.2348 42.4561 80.4355L41.2563 80.6679C41.6676 79.6381 41.8781 78.5191 41.877 77.3814V77.3765C41.878 76.6455 41.79 75.917 41.6148 75.2072C41.6198 75.0599 41.6071 74.9125 41.5772 74.7681L41.0584 72.3349C41.115 72.3306 41.1725 72.3242 41.2285 72.3242ZM34.8773 73.164C35.632 73.164 36.4906 73.5504 37.1186 74.2916C37.7463 75.0328 38.1791 76.2232 38.1775 77.3765C38.1775 77.3782 38.1775 77.3798 38.1775 77.3814C38.1791 78.5347 37.7459 79.7252 37.1184 80.4664C36.4904 81.2076 35.632 81.5941 34.8772 81.5941C34.1227 81.5941 33.2691 81.2074 32.6414 80.4664C32.0137 79.7254 31.5754 78.5347 31.577 77.3814C31.577 77.3798 31.577 77.3782 31.577 77.3765C31.5754 76.2232 32.0137 75.0328 32.6414 74.2916C33.2691 73.5504 34.1227 73.164 34.8772 73.164H34.8773ZM28.1398 75.2324C27.9687 75.9342 27.8826 76.6541 27.8836 77.3765V77.3814C27.8816 79.4068 28.5496 81.373 29.8275 82.8814C29.9912 83.0748 30.1641 83.2584 30.3447 83.4316L9.13672 90.2099L9.28945 79.3271L28.1398 75.2322V75.2324Z" fill="#1E1E1E"/>
</svg>
