<svg width="100" height="100" viewBox="0 0 100 100" fill="none" xmlns="http://www.w3.org/2000/svg">
<path d="M37.5 37.5V45.8334H29.1667V37.5H20.8333V45.8334H12.5V37.5H4.16666V87.5H12.5V79.1667H20.8333V87.5H29.1667V79.1667H37.5V87.5H45.8333V79.1667H54.1667V87.5H62.5V79.1667H70.8333V87.5H79.1667V79.1667H87.5V87.5H95.8333V37.5H87.5V45.8334H79.1667V37.5H70.8333V45.8334H62.5V37.5H54.1667V45.8334H45.8333V37.5H37.5ZM12.5 54.1667H20.8333V70.8334H12.5V54.1667ZM29.1667 54.1667H37.5V70.8334H29.1667V54.1667ZM45.8333 54.1667H54.1667V70.8334H45.8333V54.1667ZM62.5 54.1667H70.8333V70.8334H62.5V54.1667ZM79.1667 54.1667H87.5V70.8334H79.1667V54.1667ZM29.1667 16.6667H45.8333V8.33337L70.8333 20.8334H54.1667V29.1667L29.1667 16.6667Z" fill="#1E1E1E"/>
</svg>
