<svg width="100" height="100" viewBox="0 0 100 100" fill="none" xmlns="http://www.w3.org/2000/svg">
<path d="M73.9771 58.3343C79.1525 58.3343 83.3475 62.5293 83.3475 67.7047V70.1022C83.3475 73.8284 82.0158 77.4318 79.5929 80.2626C73.0537 87.9022 63.1071 91.6722 50.0017 91.6722C36.8937 91.6722 26.952 87.9009 20.4258 80.258C18.0101 77.4293 16.683 73.8313 16.683 70.1113V67.7047C16.683 62.5293 20.8782 58.3343 26.0532 58.3343H73.9771ZM73.9771 64.5843H26.0532C24.33 64.5843 22.933 65.9813 22.933 67.7047V70.1113C22.933 72.3434 23.7292 74.5022 25.1786 76.1993C30.4007 82.3147 38.5919 85.4222 50.0017 85.4222C61.4112 85.4222 69.6096 82.3147 74.8446 76.1984C76.2987 74.4997 77.0975 72.3376 77.0975 70.1022V67.7047C77.0975 65.9813 75.7004 64.5843 73.9771 64.5843ZM50.0017 8.35376C61.5075 8.35376 70.835 17.6812 70.835 29.1871C70.835 40.6931 61.5075 50.0205 50.0017 50.0205C38.4956 50.0205 29.1682 40.6931 29.1682 29.1871C29.1682 17.6812 38.4956 8.35376 50.0017 8.35376ZM50.0017 14.6038C41.9475 14.6038 35.4182 21.133 35.4182 29.1871C35.4182 37.2413 41.9475 43.7705 50.0017 43.7705C58.0558 43.7705 64.585 37.2413 64.585 29.1871C64.585 21.133 58.0558 14.6038 50.0017 14.6038Z" fill="white"/>
</svg>
