<svg width="88" height="88" viewBox="0 0 88 88" fill="none" xmlns="http://www.w3.org/2000/svg">
<path d="M87.75 75.25V37.75H34.625V75.25H50.25V81.5H0.25V87.75H87.75V81.5H72.125V75.25H87.75ZM72.125 69V59.625H81.5V69H72.125ZM65.875 59.625V69H56.5V59.625H65.875ZM56.5 53.375V44H65.875V53.375H56.5ZM81.5 53.375H72.125V44H81.5V53.375ZM50.25 44V53.375H40.875V44H50.25ZM40.875 69V59.625H50.25V69H40.875ZM65.875 81.5H56.5V75.25H65.875V81.5ZM23.1656 40.8156C21.6117 39.4254 20.4302 37.6686 19.7287 35.7051C19.0272 33.7416 18.828 31.6338 19.1493 29.5737C19.4705 27.5136 20.302 25.5665 21.568 23.9098C22.834 22.2531 24.4943 20.9394 26.3977 20.0884C28.3011 19.2373 30.3872 18.8759 32.466 19.037C34.5448 19.1981 36.5503 19.8767 38.2999 21.0109C40.0494 22.1452 41.4874 23.699 42.483 25.531C43.4786 27.363 44.0001 29.415 44 31.5H37.75C37.7505 30.4573 37.4902 29.431 36.9926 28.5146C36.4951 27.5982 35.7761 26.8209 34.9013 26.2534C34.0266 25.686 33.0237 25.3464 31.9841 25.2656C30.9445 25.1849 29.9012 25.3655 28.9493 25.791C27.9973 26.2166 27.167 26.8736 26.5339 27.7021C25.9008 28.5306 25.485 29.5044 25.3245 30.5347C25.164 31.565 25.2638 32.6191 25.6148 33.601C25.9659 34.5828 26.557 35.4613 27.3344 36.1562L23.1656 40.8156ZM28.375 0.25H34.625V12.75H28.375V0.25ZM0.25 28.375H12.75V34.625H0.25V28.375ZM7.19375 11.6125L11.6125 7.19375L20.45 16.0313L16.0313 20.45L7.19375 11.6125ZM46.9688 20.45L42.55 16.0313L51.3875 7.19375L55.8063 11.6125L46.9688 20.45Z" fill="#1E1E1E"/>
</svg>
