<svg width="100" height="100" viewBox="0 0 100 100" fill="none" xmlns="http://www.w3.org/2000/svg">
<path d="M18.75 4.88281C16.2109 4.88281 13.4668 6.20703 11.3984 8.27344C9.80273 9.87109 8.6582 11.8691 8.21484 13.8672H28.3984L23.9062 4.88281H18.75ZM76.0938 4.88281L71.6016 13.8672H91.7773C91.3477 11.8691 90.1953 9.87109 88.5938 8.27344C86.543 6.20703 83.7891 4.88281 81.25 4.88281H76.0938ZM70.7227 7.74414C65.7812 8.04688 60.9961 8.94531 57.0312 10.9277C54.043 12.416 51.5625 14.6289 50 17.5664C48.4375 14.6289 45.957 12.416 42.9688 10.9277C39.0039 8.94531 34.2187 8.04883 29.2773 7.74609L31.1328 11.4355C35 11.8379 38.5938 12.6641 41.4062 14.0723C45.6641 16.207 48.2422 19.3359 48.2422 25V70.1172H51.7578V25C51.7578 19.3359 54.3359 16.207 58.5938 14.0723C61.4258 12.6621 65 11.8359 68.8672 11.4336L70.7227 7.74414ZM9.24609 17.3828L3.71094 25.625L13.0469 21.3477L11.2891 34.375L17.7148 22.8906L20.293 39.6484L23.1836 22.207L32.3047 33.6719L27.9883 20.0781L37.9883 22.7344L31.9141 17.3828H9.24609ZM68.0859 17.3828L62.0117 22.7344L72.0117 20.0781L67.6953 33.6719L76.8164 22.207L79.707 39.6484L82.2852 22.8906L88.7109 34.375L86.9531 21.3477L96.2891 25.625L90.7617 17.3828H68.0859ZM46.2305 73.6328L45.5664 95.1172H54.4336L53.7695 73.6328H46.2305Z" fill="#1E1E1E"/>
</svg>
