<svg width="100" height="100" viewBox="0 0 100 100" fill="none" xmlns="http://www.w3.org/2000/svg">
<path d="M81.25 8.33337H18.75C15.9873 8.33337 13.3378 9.43084 11.3843 11.3843C9.4308 13.3378 8.33333 15.9874 8.33333 18.75V81.25C8.33333 84.0127 9.4308 86.6622 11.3843 88.6157C13.3378 90.5692 15.9873 91.6667 18.75 91.6667H81.25C84.0127 91.6667 86.6622 90.5692 88.6157 88.6157C90.5692 86.6622 91.6667 84.0127 91.6667 81.25V18.75C91.6667 15.9874 90.5692 13.3378 88.6157 11.3843C86.6622 9.43084 84.0127 8.33337 81.25 8.33337ZM61.125 23.625C61.1194 23.2569 61.1877 22.8913 61.3261 22.5501C61.4644 22.2089 61.6698 21.8989 61.9301 21.6385C62.1905 21.3782 62.5005 21.1727 62.8417 21.0344C63.183 20.8961 63.5485 20.8278 63.9167 20.8334C64.6394 20.8543 65.3267 21.1508 65.838 21.662C66.3493 22.1733 66.6457 22.8607 66.6667 23.5834V60.6667C66.5836 61.3431 66.256 61.9657 65.7456 62.4172C65.2352 62.8687 64.5773 63.118 63.8958 63.118C63.2144 63.118 62.5565 62.8687 62.0461 62.4172C61.5357 61.9657 61.2081 61.3431 61.125 60.6667V23.625ZM47.2083 22.2084C47.2083 21.468 47.5025 20.7579 48.026 20.2344C48.5495 19.7108 49.2596 19.4167 50 19.4167C50.7404 19.4167 51.4505 19.7108 51.974 20.2344C52.4975 20.7579 52.7917 21.468 52.7917 22.2084V62.5C52.7917 63.2404 52.4975 63.9505 51.974 64.4741C51.4505 64.9976 50.7404 65.2917 50 65.2917C49.2596 65.2917 48.5495 64.9976 48.026 64.4741C47.5025 63.9505 47.2083 63.2404 47.2083 62.5V22.2084ZM33.3333 23.625C33.4164 22.9487 33.744 22.3261 34.2544 21.8746C34.7648 21.423 35.4227 21.1738 36.1042 21.1738C36.7856 21.1738 37.4435 21.423 37.9539 21.8746C38.4643 22.3261 38.7919 22.9487 38.875 23.625V60.7084C38.875 61.073 38.8026 61.4341 38.6618 61.7705C38.521 62.1069 38.3147 62.4119 38.0549 62.6678C37.7951 62.9237 37.487 63.1254 37.1485 63.2611C36.81 63.3969 36.448 63.4639 36.0833 63.4584C35.3606 63.4374 34.6733 63.141 34.162 62.6297C33.6508 62.1185 33.3543 61.4311 33.3333 60.7084V23.625ZM19.4583 29.1667C19.5414 28.4904 19.869 27.8677 20.3794 27.4162C20.8898 26.9647 21.5477 26.7155 22.2292 26.7155C22.9106 26.7155 23.5685 26.9647 24.0789 27.4162C24.5893 27.8677 24.9169 28.4904 25 29.1667V54.1667C24.9891 54.8999 24.6901 55.5993 24.1678 56.1138C23.6454 56.6284 22.9416 56.9168 22.2083 56.9167C21.4823 56.906 20.7891 56.6128 20.2757 56.0994C19.7623 55.5859 19.4691 54.8927 19.4583 54.1667V29.1667ZM79.5833 71.5417C71.0167 77.7867 60.5931 80.9578 50 80.5417C39.4069 80.9578 28.9833 77.7867 20.4167 71.5417C19.9816 71.033 19.7439 70.3849 19.7467 69.7155C19.7496 69.0461 19.9929 68.4 20.4322 67.895C20.8716 67.39 21.4778 67.0597 22.1403 66.9642C22.8028 66.8688 23.4776 67.0146 24.0417 67.375C31.6328 72.6765 40.7476 75.3539 50 75C59.259 75.3572 68.3791 72.6636 75.9583 67.3334C76.5224 66.9729 77.1972 66.8271 77.8597 66.9226C78.5222 67.018 79.1284 67.3484 79.5678 67.8534C80.0071 68.3584 80.2504 69.0044 80.2533 69.6738C80.2561 70.3432 80.0184 70.9913 79.5833 71.5V71.5417ZM80.5417 54.1667C80.4586 54.8431 80.131 55.4657 79.6206 55.9172C79.1102 56.3687 78.4523 56.618 77.7708 56.618C77.0894 56.618 76.4315 56.3687 75.9211 55.9172C75.4107 55.4657 75.0831 54.8431 75 54.1667V29.1667C75.0109 28.4336 75.3099 27.7341 75.8322 27.2196C76.3546 26.705 77.0584 26.4166 77.7917 26.4167C78.521 26.4167 79.2205 26.7064 79.7362 27.2222C80.2519 27.7379 80.5417 28.4374 80.5417 29.1667V54.1667Z" fill="#1E1E1E"/>
</svg>
